<svg width="16" height="17" viewBox="0 0 16 17" fill="none" xmlns="http://www.w3.org/2000/svg">
<g id="CopyOutlined" clip-path="url(#clip0_325_136)">
<path id="Vector" d="M13.7143 0.5H4.14287C4.06429 0.5 4.00001 0.564286 4.00001 0.642857V1.64286C4.00001 1.72143 4.06429 1.78571 4.14287 1.78571H13V14.0714C13 14.15 13.0643 14.2143 13.1429 14.2143H14.1429C14.2214 14.2143 14.2857 14.15 14.2857 14.0714V1.07143C14.2857 0.755357 14.0304 0.5 13.7143 0.5ZM11.4286 2.78571H2.28572C1.96965 2.78571 1.71429 3.04107 1.71429 3.35714V12.8339C1.71429 12.9857 1.77501 13.1304 1.88215 13.2375L4.97679 16.3321C5.01608 16.3714 5.06072 16.4036 5.10894 16.4304V16.4643H5.18394C5.24644 16.4875 5.31251 16.5 5.38037 16.5H11.4286C11.7447 16.5 12 16.2446 12 15.9286V3.35714C12 3.04107 11.7447 2.78571 11.4286 2.78571ZM5.10715 14.6464L3.56965 13.1071H5.10715V14.6464ZM10.7143 15.2143H6.25001V12.6786C6.25001 12.2839 5.93037 11.9643 5.53572 11.9643H3.00001V4.07143H10.7143V15.2143Z" fill="#3F3F46"/>
</g>
<defs>
<clipPath id="clip0_325_136">
<rect width="16" height="16" fill="white" transform="translate(0 0.5)"/>
</clipPath>
</defs>
</svg>
